<?xml version="1.0" encoding="utf-8"?>
<!-- Generator: Adobe Illustrator 27.1.0, SVG Export Plug-In . SVG Version: 6.00 Build 0)  -->
<svg version="1.1" id="Capa_1" xmlns="http://www.w3.org/2000/svg" xmlns:xlink="http://www.w3.org/1999/xlink" x="0px" y="0px"
		viewBox="0 0 53.6 9.1" style="enable-background:new 0 0 53.6 9.1;" xml:space="preserve">
	<g class="st0">
		<path d="M5.9,0.1c3.1,0,5,1.3,5.2,3.7H7.9C7.8,3.2,7.2,2.6,5.9,2.6c-1.6,0-2.2,0.9-2.2,2c0,1.1,0.6,2.1,2.2,2.1
			c1.3,0,1.9-0.6,2.1-1.2h3.2C10.9,7.9,9,9.2,5.9,9.2c-3.3,0-5.3-1.5-5.3-4.6C0.6,1.6,2.5,0.1,5.9,0.1z"/>
		<path d="M17.5,0.1c3.1,0,5,1.3,5.2,3.7h-3.2c-0.1-0.6-0.7-1.2-2.1-1.2c-1.6,0-2.2,0.9-2.2,2c0,1.1,0.6,2.1,2.2,2.1
			c1.3,0,1.9-0.6,2.1-1.2h3.2c-0.3,2.4-2.1,3.7-5.2,3.7c-3.3,0-5.3-1.5-5.3-4.6C12.2,1.6,14.1,0.1,17.5,0.1z"/>
		<path d="M38,8.9h-3V3.2l-2.6,5.8h-2.8l-2.6-5.8v5.8h-3V0.3h4.7L31,5.4l2.4-5.1H38V8.9z"/>
		<path d="M53.5,8.9h-3V3.2l-2.6,5.8h-2.8l-2.6-5.8v5.8h-3V0.3h4.7l2.3,5.1l2.4-5.1h4.7V8.9z"/>
	</g>
</svg>
